<?xml version="1.0" encoding="utf-8"?>
<!-- Generator: Adobe Illustrator 24.0.1, SVG Export Plug-In . SVG Version: 6.00 Build 0)  -->
<svg version="1.1" id="ff41f38c-6ef4-4d72-b305-d437d63a9edd"
	 xmlns="http://www.w3.org/2000/svg" xmlns:xlink="http://www.w3.org/1999/xlink" x="0px" y="0px" viewBox="0 0 819.1 584"
	 style="enable-background:new 0 0 819.1 584;" xml:space="preserve">
<style type="text/css">
	.st0{fill:#3F3D56;}
	.st1{fill:#CACACA;}
	.st2{fill:#6C63FF;}
	.st3{opacity:0.1;enable-background:new    ;}
</style>
<path class="st0" d="M375.9,582.3c-8.9,0-17.9-1.1-26.4-3.4l-1.7-0.4l-1.6-0.9c-57.1-28.7-105.3-66.4-143.2-112.4
	c-31.4-38.3-55.9-81.8-72.3-128.5c-19.7-55.9-29.1-114.9-28-174.2c0-1.3,0-2.3,0-2.8c0-28.8,16-54.1,40.7-64.5
	c18.7-7.8,190.7-78.4,203.2-83.5C370-0.1,395,9.7,399,11.4c8.9,3.7,168,68.7,202.3,85c35.4,16.9,44.9,47.1,44.9,62.3
	c0,69-11.9,133.5-35.5,191.7c-19,47.1-46,90.6-79.8,128.5c-65,73.3-130.2,99.2-130.8,99.4C392.2,581.2,384.1,582.4,375.9,582.3z
	 M360.5,544.4c5.7,1.3,18.6,3.1,27.1,0.1c10.8-4,65.3-32.2,116.1-89.4c70.4-79.2,106.1-178.7,106.1-295.9c-0.1-2.4-1.8-19.3-24.3-30
	c-33.6-16-198.9-83.6-200.6-84.3l-0.4-0.1c-3.4-1.4-14.5-4.5-22.1-0.6l-1.6,0.7c-1.8,0.7-184.4,75.7-203.9,83.9
	c-13.6,5.7-18.5,19.7-18.5,30.9c0,0.9,0,2,0,3.5C137.1,243.4,155.7,440.6,360.5,544.4z"/>
<path class="st1" d="M935.9,723H395c-0.9,0-1.4-0.6-1.4-1.4c0-0.9,0.6-1.4,1.4-1.4h540.9c0.9,0,1.4,0.6,1.4,1.4
	C937.4,722.4,936.6,723,935.9,723z"/>
<path class="st2" d="M561.4,340.6l-21.6-33.3l-21.8,33.3h-33.9l39.7-55.7l-39.7-53.6h33.9l21.8,31.1l21.6-31.1h33.9l-39.8,53.6
	l39.6,55.4c19.8-50.2,32.8-110.2,32.8-181.4c0,0,0-29.7-34.5-46c-34.5-16.3-201.5-84.8-201.5-84.8s-20.4-9.1-37.8,0
	c0,0-184.1,75.7-203.9,83.9c-19.7,8.2-29.7,28-29.7,47.7c0,19.7-14.8,277.3,233.5,401.8c0,0,22.6,6.2,39.6,0
	c12.9-4.7,139.8-65.9,201.2-221H561.4z M229.7,340.6h-29.1L153,195.2h33.1l29,97.1l29.1-97.1h33.3L229.7,340.6z M316.3,340.6h-27.9
	V232h27.9V340.6z M319.6,209.7c-1,2.2-2.3,4.2-4,5.8c-1.7,1.7-3.7,3-5.9,4c-2.3,1-4.7,1.5-7.3,1.5c-2.6,0-5-0.5-7.3-1.5
	c-2.3-1-4.2-2.3-5.9-4c-1.7-1.7-3-3.6-4-5.8c-1-2.2-1.5-4.6-1.5-7.2c0-2.5,0.5-4.9,1.5-7.2c1-2.3,2.3-4.2,4-5.9c1.7-1.7,3.6-3,5.9-4
	c2.3-1,4.7-1.5,7.3-1.5c2.6,0,5,0.5,7.3,1.5c2.3,1,4.2,2.3,5.9,4c1.7,1.7,3,3.6,4,5.9c1,2.3,1.5,4.7,1.5,7.2
	C321.1,205,320.6,207.4,319.6,209.7z M428.8,319.6c-1.8,4.2-4.3,7.8-7.4,11c-3.1,3.1-6.8,5.6-11,7.4c-4.2,1.8-8.7,2.7-13.4,2.7
	h-63.3V313H397c1.9,0,3.5-0.7,4.9-2c1.4-1.4,2-3,2-4.9c0-2-0.7-3.2-2-3.9c-1.4-0.6-3-0.9-4.9-0.9h-28.8c-4.8,0-9.3-0.9-13.5-2.7
	c-4.2-1.8-7.8-4.3-11-7.5c-3.1-3.1-5.6-6.8-7.4-11c-1.8-4.2-2.7-8.7-2.7-13.5c0-4.8,0.9-9.3,2.7-13.5c1.8-4.2,4.2-7.8,7.4-11
	c3.1-3.1,6.8-5.6,11-7.4c4.2-1.8,8.7-2.7,13.5-2.7h56.1v27.6h-56.1c-1.9,0-3.5,0.7-4.9,2c-1.4,1.4-2,3-2,4.9c0,2,0.7,3.6,2,5
	c1.4,1.4,3,2.1,4.9,2.1H397c4.7,0,9.2,0.8,13.4,2.4c4.2,1.6,7.8,3.8,11,6.6c3.1,2.8,5.6,6.3,7.4,10.2c1.8,4,2.7,8.4,2.7,13.1
	C431.5,310.9,430.6,315.4,428.8,319.6z M474.1,340.6h-27.9V232h27.9V340.6z M477.4,209.7c-1,2.2-2.3,4.2-4,5.8c-1.7,1.7-3.7,3-5.9,4
	c-2.3,1-4.7,1.5-7.3,1.5c-2.6,0-5-0.5-7.3-1.5c-2.3-1-4.2-2.3-5.9-4c-1.7-1.7-3-3.6-4-5.8c-1-2.2-1.5-4.6-1.5-7.2
	c0-2.5,0.5-4.9,1.5-7.2c1-2.3,2.3-4.2,4-5.9c1.7-1.7,3.6-3,5.9-4c2.3-1,4.7-1.5,7.3-1.5c2.6,0,5,0.5,7.3,1.5c2.3,1,4.2,2.3,5.9,4
	c1.7,1.7,3,3.6,4,5.9c1,2.3,1.5,4.7,1.5,7.2C478.9,205,478.4,207.4,477.4,209.7z"/>
<path class="st3" d="M347.4,65.3v442c0,0-203.5-97.9-201.6-355.4L347.4,65.3z"/>
</svg>
