<?xml version="1.0" encoding="utf-8"?>
<!-- Generator: Adobe Illustrator 24.0.1, SVG Export Plug-In . SVG Version: 6.00 Build 0)  -->
<svg version="1.1" id="ff41f38c-6ef4-4d72-b305-d437d63a9edd"
	 xmlns="http://www.w3.org/2000/svg" xmlns:xlink="http://www.w3.org/1999/xlink" x="0px" y="0px" viewBox="0 0 819.1 584"
	 style="enable-background:new 0 0 819.1 584;" xml:space="preserve">
<style type="text/css">
	.st0{fill:#3F3D56;}
	.st1{fill:#6C63FF;}
	.st2{opacity:0.1;enable-background:new    ;}
	.st3{fill:#CACACA;}
</style>
<path class="st0" d="M423.6,484.9c-6.3,0-12.6-0.8-18.6-2.4l-1.2-0.3l-1.1-0.6c-40.2-20.2-74.2-46.8-100.9-79.2
	c-22.1-27-39.4-57.6-50.9-90.5c-13.9-39.4-20.5-80.9-19.7-122.7c0-0.9,0-1.6,0-2c0-20.3,11.3-38.1,28.7-45.4
	C273.1,136.3,394.2,86.6,403,83c16.5-8.3,34.1-1.4,36.9-0.2c6.3,2.6,118.3,48.4,142.5,59.9c24.9,11.9,31.6,33.2,31.6,43.9
	c0,48.6-8.4,94-25,135c-13.4,33.2-32.4,63.8-56.2,90.5c-45.8,51.6-91.7,69.9-92.1,70C435.1,484.1,429.4,485,423.6,484.9z
	 M412.8,458.2c4,0.9,13.1,2.2,19.1,0.1c7.6-2.8,46-22.7,81.8-63c49.6-55.8,74.7-125.9,74.7-208.4c-0.1-1.7-1.3-13.6-17.1-21.1
	c-23.7-11.3-140.1-58.9-141.3-59.4l-0.3-0.1c-2.4-1-10.2-3.2-15.6-0.4l-1.1,0.5c-1.3,0.5-129.9,53.3-143.6,59.1
	c-9.6,4-13,13.9-13,21.8c0,0.6,0,1.4,0,2.5C255.4,246.2,268.5,385.1,412.8,458.2z"/>
<path class="st1" d="M408.3,94.6c0,0-129.7,53.3-143.6,59.1s-20.9,19.7-20.9,33.6c0,13.9-10.4,195.3,164.5,283c0,0,15.9,4.4,27.9,0
	c12-4.4,164.9-78.5,164.9-283.6c0,0,0-20.9-24.3-32.4S434.9,94.6,434.9,94.6S420.5,88.2,408.3,94.6z"/>
<path class="st2" d="M403.2,136.3v284.3c0,0-130.9-63-129.7-228.6L403.2,136.3z"/>
<path class="st3" d="M818.1,584h-381c-0.6,0-1-0.4-1-1s0.4-1,1-1h381c0.6,0,1,0.4,1,1S818.6,584,818.1,584z"/>
</svg>
